<svg width="60" height="60" viewBox="0 0 60 60" fill="none" xmlns="http://www.w3.org/2000/svg">
<mask id="mask0_548_10121" style="mask-type:luminance" maskUnits="userSpaceOnUse" x="0" y="0" width="60" height="60">
<path fill-rule="evenodd" clip-rule="evenodd" d="M29.9786 0.253174C13.5737 0.253174 0.226562 13.6003 0.226562 30.0052C0.226562 46.4101 13.5737 59.7573 29.9786 59.7573C46.3835 59.7573 59.7307 46.4101 59.7307 30.0052C59.7307 13.6003 46.3835 0.253174 29.9786 0.253174ZM29.9786 56.7845C15.2118 56.7845 3.19934 44.7721 3.19934 30.0052C3.19934 15.2384 15.2118 3.22595 29.9786 3.22595C44.7455 3.22595 56.7579 15.2384 56.7579 30.0052C56.7579 44.7721 44.7455 56.7845 29.9786 56.7845ZM26.3628 34.1065L37.7685 22.7614C38.3509 22.1789 39.2853 22.1789 39.8677 22.7614C40.438 23.3438 40.438 24.2781 39.8555 24.8605L27.3941 37.2491C27.1029 37.5403 26.7268 37.6859 26.3506 37.6859C25.9623 37.6859 25.5862 37.5403 25.295 37.2491L20.0896 32.0073C19.5193 31.4249 19.5193 30.4785 20.1017 29.9082C20.6841 29.3379 21.6184 29.3379 22.2009 29.9203L26.3628 34.1065Z" fill="white"/>
</mask>
<g mask="url(#mask0_548_10121)">
<rect x="-4.46289" y="-11.9009" width="72.3967" height="76.3636" fill="#00C5CA"/>
</g>
</svg>
