<svg width="124" height="124" viewBox="0 0 124 124" fill="none" xmlns="http://www.w3.org/2000/svg">
<g clip-path="url(#clip0_13471_8312)">
<path d="M57.2106 10.8501C60.6361 12.9064 64.1959 14.1103 68.3189 13.2216C68.6754 13.9501 69.0113 14.6166 69.3316 15.2986C71.0521 18.9463 73.3099 22.1548 76.6476 24.5314C79.1896 26.3398 82.0623 27.2026 85.2708 27.6573C85.6944 29.2124 86.0354 30.8038 86.5676 32.3331C89.0838 39.6078 93.7751 44.7951 101.189 47.3061C101.551 47.4301 101.887 47.6161 102.378 47.8331C102.083 55.9034 105.261 62.1809 112.375 66.2884C111.264 70.0239 111.12 73.6096 113.088 77.1229C111.145 78.0891 109.161 77.6913 107.296 77.6603C97.0611 77.4639 87.3788 75.0614 78.6109 69.6571C67.9521 63.0851 59.9438 54.1313 55.3919 42.3874C51.4549 32.2298 51.9768 22.0979 56.4253 12.1676C56.6061 11.7594 56.8799 11.3926 57.2054 10.8501L57.2106 10.8501Z" fill="#AAEEEF"/>
<path d="M108.092 68.7893C107.932 68.7893 107.777 68.7428 107.637 68.6395C101.773 64.3925 98.4044 58.2751 97.8774 50.9281C90.3702 47.8333 85.1157 42.0828 82.2586 33.8213C81.9847 33.036 81.7677 32.2713 81.5869 31.5945C78.6677 30.8918 76.1826 29.7913 74.0074 28.2413C70.5612 25.7871 67.8126 22.4598 65.6167 18.0733H65.5909C63.2659 18.0733 60.9977 17.6135 58.6676 16.6731C58.2697 16.513 58.0786 16.0635 58.2387 15.6656C58.3989 15.2678 58.8484 15.0766 59.2462 15.2368C61.5506 16.1668 63.7722 16.5853 66.0714 16.5181L66.5726 16.5026L66.7896 16.9573C68.9027 21.3231 71.5584 24.604 74.9064 26.9806C77.0247 28.4893 79.4737 29.5381 82.3877 30.1891L82.8476 30.2925L82.9664 30.7523C83.1627 31.5066 83.4056 32.4005 83.7259 33.315C86.4901 41.2975 91.5947 46.8 98.9056 49.6726L99.3706 49.8535L99.3964 50.3495C99.7839 57.5363 102.863 63.2713 108.547 67.384C108.893 67.6371 108.97 68.1176 108.717 68.4638C108.567 68.6705 108.33 68.7841 108.087 68.7841L108.092 68.7893Z" fill="#00C5CA"/>
<path d="M24.6967 110.66C22.5061 108.015 22.8316 104.088 25.2599 101.66L32.3951 94.5244L34.0019 96.1312L26.8357 103.297C25.2082 104.925 25.0067 107.575 26.5257 109.311C28.0447 111.047 30.4059 111.239 32.1626 110.086C32.6069 109.797 33.1908 109.869 33.5679 110.247C34.0691 110.748 34.0071 111.595 33.4129 111.983C30.6849 113.775 26.9081 113.336 24.6916 110.66H24.6967Z" fill="#AAEEEF"/>
<path d="M66.3749 58.2362L52.8318 71.7793L54.4356 73.3831L67.9787 59.84L66.3749 58.2362Z" fill="#AAEEEF"/>
<path d="M36.5799 59.0087C36.3629 59.0087 36.1511 58.9208 35.9961 58.7452C35.7119 58.4248 35.7429 57.934 36.0684 57.6498L50.4576 45.0122C50.7779 44.728 51.2688 44.7642 51.5529 45.0845C51.8371 45.4048 51.8061 45.8957 51.4806 46.1798L37.0914 58.8175C36.9416 58.9467 36.7608 59.0087 36.5799 59.0087Z" fill="#00C5CA"/>
<path d="M58.5953 91.7758C58.3783 91.7758 58.1665 91.6879 58.0115 91.5123C57.7273 91.1919 57.7583 90.7011 58.0838 90.4169L72.473 77.7793C72.7933 77.4951 73.2842 77.5313 73.5683 77.8516C73.8525 78.1719 73.8215 78.6628 73.496 78.9469L59.1068 91.5846C58.957 91.7138 58.7762 91.7758 58.5953 91.7758Z" fill="#00C5CA"/>
<path d="M13.0045 98.1718L11.3667 96.9163C11.4235 96.844 16.988 89.6055 24.2834 81.8142C34.1465 71.2845 42.3254 64.8107 48.5925 62.5683C50.0495 62.0465 51.6512 62.155 52.9842 62.8577C54.9114 63.8807 56.0222 65.4771 56.1979 67.4715C56.3477 69.1661 55.7225 70.9022 54.4877 72.2351L49.5949 77.5051L48.081 76.0998L52.9739 70.8298C53.8109 69.9256 54.2345 68.7683 54.1415 67.6523C54.0279 66.371 53.3149 65.3687 52.018 64.6815C51.1965 64.2475 50.1994 64.1855 49.29 64.511C35.0094 69.626 13.2267 97.8876 13.0045 98.1718Z" fill="#0B3EE3"/>
<path d="M48.6028 85.5186C46.6394 85.5186 44.2318 84.9348 42.0618 82.7493C40.7546 81.4369 40.2896 79.5304 40.8528 77.7789C41.5141 75.7174 42.7231 74.9786 43.6221 74.7203C45.5286 74.1726 47.9259 75.1439 50.9536 77.7014L49.6206 79.2824C46.4483 76.6009 44.8569 76.5183 44.1956 76.7094C43.5911 76.8851 43.1261 77.4586 42.8213 78.4144C42.4958 79.4271 42.7696 80.5328 43.5291 81.2974C46.8823 84.6713 51.0053 83.1419 51.6098 82.8939C53.4336 81.6694 54.4256 80.2641 54.5599 78.7244C54.8131 75.8724 52.1471 73.2839 52.1213 73.2581L53.5473 71.7598C53.6868 71.8941 56.9573 75.0458 56.6214 78.8949C56.4251 81.1166 55.1024 83.0593 52.6741 84.6661L52.5346 84.7436C52.4106 84.8004 50.7831 85.5238 48.6079 85.5238L48.6028 85.5186Z" fill="#0B3EE3"/>
<path d="M42.7593 93.8266C39.5404 93.8266 37.3188 92.2714 36.7195 89.5228C35.9135 85.8389 38.3056 81.3439 41.6381 80.2744L42.2685 82.2429C39.9435 82.9869 38.161 86.4383 38.7396 89.0836C39.3028 91.6773 41.8189 91.9356 43.8391 91.6928C52.0438 90.7111 52.4778 82.9818 52.4933 82.6511L54.5599 82.7338C54.5599 82.8319 54.0691 92.5504 44.0871 93.7439C43.6273 93.8008 43.1881 93.8266 42.7645 93.8266H42.7593Z" fill="#0B3EE3"/>
<path d="M38.2384 99.6548C36.8537 99.6548 35.7997 99.2776 35.0971 98.9005C32.7152 97.6346 31.2014 94.7878 31.3202 91.817C31.5011 87.415 35.5311 85.7926 37.6391 85.5498L37.8767 87.601L37.7579 86.5728L37.8819 87.601C37.7062 87.6216 33.5367 88.1745 33.3869 91.8996C33.2991 94.0903 34.3737 96.1725 36.0684 97.0715C38.0937 98.1513 40.8837 97.521 43.9269 95.3045C44.2421 95.0203 46.7427 92.7263 47.5281 90.856L49.4346 91.6516C48.4167 94.0851 45.3891 96.7718 45.2599 96.8855L45.1876 96.9423C42.3511 99.0193 40.0209 99.6496 38.2332 99.6496L38.2384 99.6548Z" fill="#0B3EE3"/>
<path d="M40.3372 97.3587L33.5103 104.669L35.0207 106.08L41.8476 98.7692L40.3372 97.3587Z" fill="#0B3EE3"/>
</g>
<defs>
<clipPath id="clip0_13471_8312">
<rect width="101.732" height="102.207" fill="white" transform="translate(11.3667 10.8501)"/>
</clipPath>
</defs>
</svg>
